<svg width="30" height="30" viewBox="0 0 30 30" fill="none" xmlns="http://www.w3.org/2000/svg">
<path d="M15 18.9719C14.55 18.9719 14.25 18.6719 14.25 18.2219V14.9219C14.25 14.4719 14.55 14.1719 15 14.1719C16.65 14.1719 18 12.8219 18 11.1719C18 9.52187 16.65 8.17188 15 8.17188C13.35 8.17188 12 9.52187 12 11.1719C12 11.6219 11.7 11.9219 11.25 11.9219C10.8 11.9219 10.5 11.6219 10.5 11.1719C10.5 8.69688 12.525 6.67188 15 6.67188C17.475 6.67188 19.5 8.69688 19.5 11.1719C19.5 13.4219 17.85 15.2219 15.75 15.5969V18.2219C15.75 18.6719 15.45 18.9719 15 18.9719Z" fill="#231F20"/>
<path d="M15 30C6.75 30 0 23.25 0 15C0 6.75 6.75 0 15 0C18.375 0 21.525 1.125 24.225 3.15C24.525 3.375 24.6 3.9 24.375 4.2C24.15 4.5 23.625 4.575 23.325 4.35C20.925 2.475 18 1.5 15 1.5C7.575 1.5 1.5 7.575 1.5 15C1.5 22.425 7.575 28.5 15 28.5C22.425 28.5 28.5 22.425 28.5 15C28.5 12.6 27.825 10.2 26.625 8.1C26.4 7.725 26.55 7.275 26.85 7.05C27.225 6.825 27.675 6.975 27.9 7.275C29.25 9.675 30 12.3 30 15C30 23.25 23.25 30 15 30Z" fill="#231F20"/>
<path d="M15 24.3766C14.55 24.3766 14.25 24.0766 14.25 23.6266V21.6016C14.25 21.1516 14.55 20.8516 15 20.8516C15.45 20.8516 15.75 21.1516 15.75 21.6016V23.6266C15.75 24.0766 15.45 24.3766 15 24.3766Z" fill="#231F20"/>
</svg>
